# xmcd
#
# Track frame offsets:
#	150
#	11944
#	34430
#	59614
#	87421
#	110306
#	132468
#	170272
#	213240
#	236704
#	263304
#
# Disc length: 3850 seconds
#
# Revision: 1
# Processed by: cddbd v1.5.2PL0 Copyright (c) Steve Scherf et al.
# Submitted via: audiograbber 1.83.01
#
DISCID=980f080b
DTITLE=Layla Zoe - The Lily
DYEAR=2013
DGENRE=Blues
TTITLE0=Glory, Glory, Halelujah
TTITLE1=In Her Mother's House
TTITLE2=Green Eyed Lover
TTITLE3=Gemini Heart
TTITLE4=Never Met A Man Like You
TTITLE5=Why You So Afraid
TTITLE6=Father
TTITLE7=The Lily
TTITLE8=I Choose You
TTITLE9=They Lie
TTITLE10=Hey, Hey, My, My
EXTD=
EXTT0=
EXTT1=
EXTT2=
EXTT3=
EXTT4=
EXTT5=
EXTT6=
EXTT7=
EXTT8=
EXTT9=
EXTT10=
PLAYORDER=
